<svg width="32" height="32" viewBox="0 0 32 32" fill="none" xmlns="http://www.w3.org/2000/svg">
<path fill-rule="evenodd" clip-rule="evenodd" d="M15.04 31.9717V0.0283251C15.3576 0.00953051 15.6777 0 16 0C16.2144 0 16.4277 0.00421481 16.64 0.0125661V31.9874C16.4277 31.9958 16.2144 32 16 32C15.6777 32 15.3576 31.9905 15.04 31.9717Z" fill="#ED1C24"/>
<path fill-rule="evenodd" clip-rule="evenodd" d="M15.04 0.0157591C6.6504 0.512235 0 7.47319 0 15.9874C0 24.5017 6.6504 31.4626 15.04 31.9591V0.0157591ZM16.64 31.9749C25.1799 31.6389 32 24.6096 32 15.9874C32 7.36522 25.1799 0.335938 16.64 0V31.9749Z" fill="white"/>
</svg>
